<svg id="Groupe_724" data-name="Groupe 724" xmlns="http://www.w3.org/2000/svg" width="17.999" height="18" viewBox="0 0 17.999 18">
  <path id="Tracé_2525" data-name="Tracé 2525" d="M90.661,230.4c2.4,0,2.688.009,3.637.053a4.967,4.967,0,0,1,1.671.31,2.976,2.976,0,0,1,1.708,1.708,5.009,5.009,0,0,1,.31,1.671c.043.949.052,1.234.052,3.637s-.009,2.688-.052,3.637a5.009,5.009,0,0,1-.31,1.671,2.98,2.98,0,0,1-1.708,1.708,4.967,4.967,0,0,1-1.671.31c-.949.043-1.234.053-3.637.053s-2.688-.01-3.637-.053a4.967,4.967,0,0,1-1.671-.31,2.98,2.98,0,0,1-1.708-1.708,5.009,5.009,0,0,1-.31-1.671c-.043-.949-.052-1.234-.052-3.637s.009-2.688.052-3.637a5.009,5.009,0,0,1,.31-1.671,2.976,2.976,0,0,1,1.708-1.708,4.967,4.967,0,0,1,1.671-.31c.949-.044,1.234-.053,3.637-.053m0-1.622c-2.444,0-2.751.01-3.711.054a6.608,6.608,0,0,0-2.184.418,4.6,4.6,0,0,0-2.632,2.632,6.573,6.573,0,0,0-.418,2.185c-.044.959-.054,1.266-.054,3.71s.01,2.751.054,3.711a6.578,6.578,0,0,0,.418,2.185,4.6,4.6,0,0,0,2.632,2.632,6.609,6.609,0,0,0,2.184.418c.96.044,1.267.054,3.711.054s2.751-.01,3.711-.054a6.608,6.608,0,0,0,2.184-.418,4.6,4.6,0,0,0,2.632-2.632,6.577,6.577,0,0,0,.418-2.185c.044-.96.054-1.266.054-3.711s-.01-2.751-.054-3.71a6.573,6.573,0,0,0-.418-2.185,4.6,4.6,0,0,0-2.632-2.632,6.608,6.608,0,0,0-2.184-.418c-.96-.044-1.267-.054-3.711-.054" transform="translate(-81.661 -228.78)" fill="#746a6f"/>
  <path id="Tracé_2526" data-name="Tracé 2526" d="M90.661,234.275a3.5,3.5,0,1,0,3.506,3.5,3.505,3.505,0,0,0-3.506-3.5m0,5.78a2.275,2.275,0,1,1,2.276-2.275,2.276,2.276,0,0,1-2.276,2.275" transform="translate(-81.661 -228.78)" fill="#746a6f"/>
  <path id="Tracé_2527" data-name="Tracé 2527" d="M100.339,234.045a1.355,1.355,0,1,1-1.355-1.355,1.355,1.355,0,0,1,1.355,1.355" transform="translate(-85.347 -229.683)" fill="#746a6f"/>
</svg>
