<svg id="Groupe_728" data-name="Groupe 728" xmlns="http://www.w3.org/2000/svg" width="17.997" height="18.005" viewBox="0 0 17.997 18.005">
  <g id="Groupe_727" data-name="Groupe 727">
    <rect id="Rectangle_510" data-name="Rectangle 510" width="3.715" height="12.003" transform="translate(0.357 6.002)" fill="#746a6f"/>
    <path id="Tracé_2529" data-name="Tracé 2529" d="M398.917,310.39a2.215,2.215,0,1,0-2.2-2.215A2.206,2.206,0,0,0,398.917,310.39Z" transform="translate(-396.72 -305.96)" fill="#746a6f"/>
  </g>
  <path id="Tracé_2530" data-name="Tracé 2530" d="M407.683,318.494c0-1.687.777-2.692,2.264-2.692,1.366,0,2.022.965,2.022,2.692v6.3h3.7v-7.6c0-3.215-1.822-4.77-4.367-4.77a4.185,4.185,0,0,0-3.618,1.984v-1.617h-3.564v12h3.564Z" transform="translate(-397.671 -306.791)" fill="#746a6f"/>
</svg>
