<svg id="Calque_1" data-name="Calque 1" xmlns="http://www.w3.org/2000/svg" xmlns:xlink="http://www.w3.org/1999/xlink" viewBox="0 0 425.2 425.2"><defs><style>.cls-1{fill:url(#linear-gradient);}.cls-2{fill:url(#linear-gradient-2);}.cls-3{fill:url(#linear-gradient-3);}.cls-4{fill:url(#linear-gradient-4);}.cls-5{fill:url(#linear-gradient-5);}.cls-6{fill:url(#linear-gradient-6);}.cls-7{fill:url(#linear-gradient-7);}.cls-8{font-size:48.12px;fill:#1e5e8a;}.cls-11,.cls-8{font-family:BeamVisionaryRegular, Beam Visionary;}.cls-9{letter-spacing:-0.03em;}.cls-10{letter-spacing:0em;}.cls-11{font-size:60.09px;fill:#203959;}</style><linearGradient id="linear-gradient" x1="10.22" y1="135.83" x2="294.55" y2="135.83" gradientUnits="userSpaceOnUse"><stop offset="0" stop-color="#35363f"/><stop offset="1" stop-color="#464755"/></linearGradient><linearGradient id="linear-gradient-2" x1="9.35" y1="292.49" x2="163.03" y2="292.49" gradientUnits="userSpaceOnUse"><stop offset="0" stop-color="#4c77bb"/><stop offset="1" stop-color="#6ec9f0"/></linearGradient><linearGradient id="linear-gradient-3" x1="291.05" y1="133.61" x2="367.63" y2="133.61" xlink:href="#linear-gradient-2"/><linearGradient id="linear-gradient-4" x1="264.25" y1="159.77" x2="281.73" y2="159.77" xlink:href="#linear-gradient-2"/><linearGradient id="linear-gradient-5" x1="264.54" y1="134.52" x2="281.71" y2="134.52" xlink:href="#linear-gradient-2"/><linearGradient id="linear-gradient-6" x1="284.8" y1="136.33" x2="300.31" y2="136.33" xlink:href="#linear-gradient-2"/><linearGradient id="linear-gradient-7" x1="284.81" y1="161.39" x2="299.92" y2="161.39" xlink:href="#linear-gradient-2"/></defs><path class="cls-1" d="M78.42,163.37l-46,40.29c.61.72,1.31.44,1.91.44,28.21,0,56.41.16,84.62-.14,21.49-.22,43-.11,64.48-.25,2.88,0,3.1.21,3.22,3.11.27,6.48-1.35,12.38-5.59,17.4-2.9,3.44-6.61,4.13-10.62,2.11a14.51,14.51,0,0,1-7.87-16c.28-1.5,1.09-1.88,2.47-1.88,4.67,0,9.33-.05,14-.08.46,0,.92,0,1.38,0s1,0,1-.65-.59-.62-1.05-.65-.79,0-1.18,0c-15.06-.18-30.11-.33-45.16-.54-16.23-.22-32.46-.45-48.69-.78-24.32-.5-48.64-.86-73-.72a1.34,1.34,0,0,1-.2,0c-.67-.12-1.63.35-1.93-.49-.25-.68.59-1.09,1.05-1.52q6.39-6,12.8-12,14.76-13.8,29.52-27.6,16.06-15,32.16-30c7.2-6.72,14.37-13.49,21.56-20.23,3.55-3.33,7.12-6.62,10.67-9.95a7,7,0,0,1,2.56-1.43c13.85-5,27.7-10,41.59-14.85,1.82-.64,2.42-1.52,2.35-3.4-.27-8.54-.41-17.08-.65-25.62a1.82,1.82,0,0,1,1.41-2c4.48-1.52,9-3,13.43-4.58,1.46-.51,1.94.16,2,1.47.13,3,.22,6,.38,9.06.54,9.77.85,19.56,1.32,29.33.58,12.08,1.23,24.14,1.85,36.21.17,3.39-.07,6.81.58,10.16.49,0,.61-.33.78-.58,4.75-6.78,9.46-13.59,14.26-20.34a7.16,7.16,0,0,0,1.36-4.77q-.84-17-1.59-34c-.15-3.37-.1-3.39,3-4.39q24.58-7.89,49.19-15.77,20.37-6.56,40.72-13.14a2.15,2.15,0,0,1,2-.13c-.62.94-1.19,1.86-1.8,2.75L263.89,89.52Q246,115.83,228.06,142.15,214.59,162,201.17,181.8c-4.43,6.53-8.9,13-13.28,19.59a4.32,4.32,0,0,1-4,2.16q-49.41-.09-98.82,0c-9.39,0-18.77.34-28.17,0-3.87-.12-7.75.12-11.62.16-.62,0-1.48.17-1.75-.55s.53-1,.91-1.42q12.11-13.49,24.25-27l9.09-10.11C78,164.35,78.47,164.09,78.42,163.37Z"/><path class="cls-2" d="M27,207.22c17.58.44,36.25.25,54.91.56,15,.25,30,0,45,.4,9.6.23,19.19.18,28.79.25,1.91,0,2.57.49,2.64,2.54.17,5.1,1.23,10,4.19,14.36.24.36.74.72.48,1.21s-1,.27-1.44.26c-7.69-.15-15.38-.23-23.06-.53-2.29-.09-3.71.59-4.61,2.69a19.35,19.35,0,0,1-2.29,4.13c-2.36,3.1-2.77,6.58-2.36,10.27.35,3.14.23,6.3.28,9.45.08,5.08,2.25,8.12,7.19,9.19,7.82,1.7,12.3,6.84,15.07,13.91a47.46,47.46,0,0,1,3,17.37c.07,9.92.23,19.85.29,29.77a4.52,4.52,0,0,0,2,4c1.5,1.07,2.39,2.5,1.7,4.42-.65,1.76-2.15,2.11-3.83,2.15s-3.28.26-4.92.26-1.84.49-1.26,1.9a46.21,46.21,0,0,0,7.57,12.86c4.58,5.27,6,11.18,4.66,18-1.25,6.57-6.14,10.85-13.12,11.11-8.08.3-14.18-5.38-15.26-14.17a19.47,19.47,0,0,1,3.3-13.84,70,70,0,0,0,7.47-13.63c.77-1.9.68-2.08-1.45-2.09s-4.34,0-6.51,0c-1.82,0-3.27-.6-3.77-2.5a3.45,3.45,0,0,1,1.81-4.18c1.67-.84,2-2,1.89-3.66-.73-10.16-.16-20.36-1.09-30.52-.53-5.74-3-9.74-8.1-12.34A39.53,39.53,0,0,1,113.69,271c-4.69-5.6-6-12.28-6.32-19.29-.16-3.94-.11-7.89-.14-11.83a10.15,10.15,0,0,0-1.47-5.43c-1.52-2.46-2.88-5-4.24-7.57a2.29,2.29,0,0,0-2.18-1.36c-2.17,0-4.33-.22-6.5-.27-16-.31-31.93-.58-47.9-.91-10.51-.21-21-.5-31.53-.75-2.49,0-2.61-.18-2.79-2.69-.09-1.31-.24-2.62-.37-3.92s.43-1.73,1.59-1.69c1.77.07,3.54.21,5.31.24,13.74.19,27.48.33,41.21.53q25.23.38,50.47.81l43,.74h1.77c1.42,0,1.75-.84,1.81-2,.06-1.36-.82-1.43-1.81-1.44-9.33-.13-18.66-.28-28-.4-12.36-.16-24.72-.17-37.07-.51-9.14-.25-18.27-.18-27.41-.33q-24.43-.41-48.89-.74a3.1,3.1,0,0,1-2.61-4.22c.41-.85,1.22-.65,1.91-.65C16.3,207.21,21.1,207.22,27,207.22ZM151.44,311.45c-.19-4.27-.32-8.53-.36-12.8-.05-5-.24-10.1-.37-15.15,0-.86,0-1.89-1.26-1.81-1.07.07-1,1-1,1.82,0,.39,0,.78,0,1.18q.22,14.37.46,28.75a8.55,8.55,0,0,0,.22,1.75c.14.6.48,1.14,1.18,1.13s1.14-.62,1.17-1.33C151.47,313.81,151.44,312.63,151.44,311.45Zm-39-52.73c-1.13.17-1.21,1-.83,2a28.44,28.44,0,0,0,4.84,8.52,30,30,0,0,0,9,7.56c.52.26,1.2.61,1.55-.1s-.4-.88-.81-1.15a28.58,28.58,0,0,1-12-15.38C113.94,259.4,113.64,258.64,112.44,258.72Zm-.09-24.67a2.57,2.57,0,0,0-.16-.64c-1.15-2.36-2.22-4.75-3.5-7-.76-1.37-2.22-.74-3.4-.67-.4,0-.35.49-.19.8,1.51,2.83,3,5.66,4.57,8.47a1.34,1.34,0,0,0,1.73.56A1.44,1.44,0,0,0,112.35,234.05Zm38.18,141.69c5.14,0,9.52-6.3,8.49-11.1C158.11,369.92,155.07,373.16,150.53,375.74Z"/><path class="cls-3" d="M361.7,203.4c-7.76-.18-5.53,1.31-9-5.6-9.91-19.8-19.7-39.65-29.52-59.49q-15.74-31.78-31.47-63.58a4.31,4.31,0,0,1,.33-5.07,40.49,40.49,0,0,0,3.07-4.82c.82-1.48,1.31-1.31,2,.08q5.16,10.2,10.39,20.37c6.12,11.91,12.3,23.81,18.4,35.74,5.54,10.81,11,21.68,16.51,32.5,5.09,9.93,10.26,19.83,15.39,29.75,3.16,6.13,6.28,12.28,9.46,18.4.65,1.26.47,1.8-1,1.74S363.21,203.4,361.7,203.4Z"/><path class="cls-4" d="M264.35,159.49c0-3.22,0-6.44,0-9.66,0-1.46.5-2,2-1.78,4.37.51,8.74.93,13.12,1.34,1.55.15,2.3.76,2.27,2.48-.08,5.78-.06,11.56,0,17.33,0,1.65-.47,2.44-2.26,2.31-4.64-.33-9.29-.58-13.94-.83-1.2-.06-1.29-.78-1.28-1.74,0-3.15,0-6.3,0-9.45Z"/><path class="cls-5" d="M264.71,133.74c0-3,.05-6.05,0-9.07,0-1.39.3-2,1.89-1.88,4.43.47,8.88.85,13.33,1.19,1.37.11,1.79.81,1.79,2,0,6.11,0,12.22,0,18.33,0,1.46-.62,2-2,1.88-4.57-.46-9.14-.9-13.71-1.37-1-.1-1.46-.53-1.42-1.67.1-3.15,0-6.31,0-9.46Z"/><path class="cls-6" d="M284.83,135.58c0-3.09,0-6.18,0-9.26,0-1.5.61-2,2-1.81,3.85.41,7.7.8,11.56,1.07,1.45.1,1.93.68,1.9,2.08q-.24,9.34-.37,18.7c0,1.54-.71,1.93-2.1,1.77-3.65-.4-7.3-.8-11-1.09-1.47-.12-2.11-.69-2.08-2.2.06-3.09,0-6.17,0-9.26Z"/><path class="cls-7" d="M284.83,161c0-3,0-5.92,0-8.87,0-1.57.57-2.11,2.13-1.92q5.58.66,11.16,1.12c1.35.11,1.85.69,1.82,2-.11,5.91.11,11.82-.37,17.73-.09,1.14-.53,1.71-1.69,1.64l-11.78-.79c-1.22-.08-1.26-.94-1.26-1.83V161Z"/><text class="cls-8" transform="translate(226.88 332.37)">Exp<tspan class="cls-9" x="90.99" y="0">r</tspan><tspan class="cls-10" x="110.14" y="0">ess</tspan></text><text class="cls-11" transform="translate(184.18 284.39)">BBS</text></svg>