<svg xmlns="http://www.w3.org/2000/svg" width="18" height="12.682" viewBox="0 0 18 12.682">
  <path id="Tracé_2528" data-name="Tracé 2528" d="M97.7,310.356a2.262,2.262,0,0,0-1.591-1.6,53.442,53.442,0,0,0-7.033-.379,53.437,53.437,0,0,0-7.033.379,2.264,2.264,0,0,0-1.592,1.6,25.482,25.482,0,0,0,0,8.721,2.263,2.263,0,0,0,1.592,1.6,53.437,53.437,0,0,0,7.033.379,53.442,53.442,0,0,0,7.033-.379,2.261,2.261,0,0,0,1.591-1.6,25.436,25.436,0,0,0,0-8.721Zm-10.464,7.037V312.04l4.7,2.676Z" transform="translate(-80.073 -308.375)" fill="#746a6f"/>
</svg>
